<svg xmlns="http://www.w3.org/2000/svg" xmlns:xlink="http://www.w3.org/1999/xlink" width="90" zoomAndPan="magnify" viewBox="0 0 67.5 52.499999" height="70" preserveAspectRatio="xMidYMid meet" version="1.0"><defs><g/><clipPath id="bf32be4cd9"><path d="M 6 39 L 27 39 L 27 45.320312 L 6 45.320312 Z M 6 39 " clip-rule="nonzero"/></clipPath><clipPath id="f98939297f"><path d="M 2.125 12 L 30.355469 12 L 30.355469 43 L 2.125 43 Z M 2.125 12 " clip-rule="nonzero"/></clipPath><clipPath id="93304a5008"><path d="M 16 5.199219 L 29 5.199219 L 29 17 L 16 17 Z M 16 5.199219 " clip-rule="nonzero"/></clipPath><clipPath id="43f012d910"><path d="M 33.503906 17.53125 L 41.082031 17.53125 L 41.082031 25.113281 L 33.503906 25.113281 Z M 33.503906 17.53125 " clip-rule="nonzero"/></clipPath><clipPath id="fde2bc04a6"><path d="M 37.292969 17.53125 C 35.199219 17.53125 33.503906 19.230469 33.503906 21.324219 C 33.503906 23.417969 35.199219 25.113281 37.292969 25.113281 C 39.386719 25.113281 41.082031 23.417969 41.082031 21.324219 C 41.082031 19.230469 39.386719 17.53125 37.292969 17.53125 Z M 37.292969 17.53125 " clip-rule="nonzero"/></clipPath></defs><path fill="#909b12" d="M 16.277344 11.308594 C 9.347656 11.308594 6.578125 12.269531 6.578125 12.269531 L 7.363281 19.3125 L 8.195312 21.992188 C 17.609375 19.199219 25.476562 22.332031 25.476562 22.332031 L 26.382812 12.269531 C 26.382812 12.269531 23.207031 11.308594 16.277344 11.308594 Z M 12.035156 14.214844 C 13.210938 14.214844 13.484375 15.046875 13.484375 15.046875 L 19.476562 15.046875 C 19.476562 15.046875 19.75 14.214844 20.925781 14.214844 C 22.105469 14.214844 22.558594 15.199219 22.558594 15.199219 L 22.558594 17.953125 C 22.558594 17.953125 22.578125 19.425781 20.726562 19.425781 L 12.234375 19.425781 C 10.382812 19.425781 10.402344 17.953125 10.402344 17.953125 L 10.402344 15.199219 C 10.402344 15.199219 10.855469 14.214844 12.035156 14.214844 Z M 12.035156 14.214844 " fill-opacity="1" fill-rule="nonzero"/><g clip-path="url(#bf32be4cd9)"><path fill="#7a830f" d="M 12.179688 39.664062 L 6.179688 39.777344 L 6.140625 42.453125 C 6.140625 42.453125 7.570312 45.324219 16.285156 45.324219 C 25 45.324219 26.3125 42.386719 26.3125 42.386719 L 26.3125 39.828125 L 20.1875 39.675781 L 19.21875 43.785156 L 13.066406 43.785156 Z M 12.179688 39.664062 " fill-opacity="1" fill-rule="nonzero"/></g><g clip-path="url(#f98939297f)"><path fill="#a6b215" d="M 6.578125 12.269531 L 6.578125 23.238281 C 6.578125 23.238281 2.523438 24.996094 2.523438 28.230469 L 2.523438 35.351562 C 2.523438 35.351562 2.535156 35.519531 2.5625 35.742188 L 2.546875 35.742188 C 2.320312 35.742188 2.132812 35.921875 2.132812 36.144531 C 2.132812 36.367188 2.320312 36.546875 2.546875 36.546875 L 2.742188 36.546875 C 3.15625 37.902344 4.34375 40.070312 7.816406 41.203125 C 11.402344 42.375 13.261719 42.488281 16.703125 42.449219 C 20.542969 42.40625 24.796875 42.449219 27.820312 39.429688 C 28.894531 38.359375 29.441406 37.339844 29.722656 36.546875 L 29.925781 36.546875 C 30.15625 36.546875 30.339844 36.367188 30.339844 36.144531 C 30.339844 35.929688 30.164062 35.753906 29.941406 35.746094 C 30.035156 35.265625 30.011719 34.976562 30.011719 34.976562 L 30.011719 28.03125 C 30.011719 28.03125 30.042969 24.460938 26.457031 23.5 L 26.382812 12.269531 C 26.382812 12.269531 24.644531 12.707031 24.644531 13.914062 L 24.644531 23.046875 C 24.644531 23.046875 21.050781 21.726562 16.363281 21.726562 C 11.671875 21.726562 8.421875 22.746094 8.421875 22.746094 L 8.421875 14.414062 C 8.421875 14.414062 8.34375 12.742188 6.578125 12.269531 Z M 6.578125 12.269531 " fill-opacity="1" fill-rule="nonzero"/></g><path fill="#b82f16" d="M 21.449219 22.226562 C 21.308594 22.199219 21.191406 22.171875 21.042969 22.144531 C 20.601562 22.066406 20.132812 21.996094 19.632812 21.933594 C 19.386719 21.902344 19.128906 21.875 18.867188 21.847656 C 18.605469 21.824219 18.335938 21.800781 18.0625 21.785156 C 17.789062 21.765625 17.511719 21.75 17.226562 21.742188 C 16.945312 21.730469 16.65625 21.726562 16.363281 21.726562 C 16.070312 21.726562 15.78125 21.730469 15.5 21.738281 C 15.21875 21.746094 14.945312 21.757812 14.675781 21.769531 C 14.136719 21.796875 13.625 21.839844 13.144531 21.886719 C 12.660156 21.933594 12.207031 21.988281 11.789062 22.050781 C 11.558594 22.082031 11.363281 22.117188 11.152344 22.152344 C 11.121094 22.210938 11.105469 22.269531 11.105469 22.332031 C 11.105469 22.511719 11.234375 22.6875 11.5 22.851562 C 11.761719 23.019531 12.136719 23.167969 12.621094 23.296875 C 13.109375 23.425781 13.667969 23.523438 14.300781 23.59375 C 14.9375 23.660156 15.597656 23.695312 16.285156 23.695312 C 16.972656 23.695312 17.632812 23.660156 18.265625 23.59375 C 18.902344 23.523438 19.460938 23.425781 19.949219 23.296875 C 20.433594 23.167969 20.808594 23.019531 21.070312 22.851562 C 21.335938 22.6875 21.464844 22.511719 21.464844 22.332031 C 21.464844 22.296875 21.460938 22.261719 21.449219 22.226562 Z M 21.449219 22.226562 " fill-opacity="1" fill-rule="nonzero"/><path fill="#828d10" d="M 27.632812 27.902344 C 15.992188 30.460938 4.507812 27.902344 4.507812 27.902344 C 4.464844 27.890625 4.4375 27.90625 4.429688 27.949219 C 4.417969 27.992188 4.4375 28.019531 4.476562 28.027344 C 4.476562 28.027344 15.984375 30.59375 27.660156 28.027344 C 27.703125 28.019531 27.71875 27.992188 27.710938 27.949219 C 27.703125 27.90625 27.675781 27.890625 27.632812 27.902344 Z M 27.632812 27.902344 " fill-opacity="1" fill-rule="nonzero"/><path fill="#dda004" d="M 15.457031 16.820312 L 15.457031 17.269531 L 15.605469 17.417969 L 15.777344 17.417969 L 15.777344 17.976562 L 15.621094 17.976562 L 15.621094 18.664062 C 15.621094 18.855469 15.308594 19.011719 15.308594 19.011719 L 15.308594 19.734375 L 15.414062 19.734375 C 15.414062 20.019531 15.75 20.089844 15.75 20.089844 L 16.820312 20.089844 C 16.820312 20.089844 17.15625 20.019531 17.15625 19.734375 L 17.257812 19.734375 L 17.257812 19.011719 C 17.257812 19.011719 16.949219 18.855469 16.949219 18.664062 L 16.949219 17.976562 L 16.789062 17.976562 L 16.789062 17.417969 L 16.964844 17.417969 L 17.113281 17.269531 L 17.113281 16.820312 Z M 15.457031 16.820312 " fill-opacity="1" fill-rule="nonzero"/><path fill="#e9f188" d="M 15.21875 19.910156 L 17.351562 19.910156 C 17.378906 19.910156 17.402344 19.933594 17.402344 19.960938 L 17.402344 21.074219 C 17.402344 21.101562 17.378906 21.125 17.351562 21.125 L 15.21875 21.125 C 15.191406 21.125 15.167969 21.101562 15.167969 21.074219 L 15.167969 19.960938 C 15.167969 19.933594 15.191406 19.910156 15.21875 19.910156 Z M 15.21875 19.910156 " fill-opacity="1" fill-rule="nonzero"/><path fill="#a6b215" d="M 14.78125 20.519531 L 17.785156 20.519531 C 17.824219 20.519531 17.855469 20.546875 17.855469 20.585938 L 17.855469 22.15625 C 17.855469 22.195312 17.824219 22.21875 17.785156 22.226562 C 16.785156 22.4375 15.785156 22.421875 14.78125 22.226562 C 14.746094 22.21875 14.714844 22.195312 14.714844 22.15625 L 14.714844 20.585938 C 14.714844 20.546875 14.746094 20.519531 14.78125 20.519531 Z M 14.78125 20.519531 " fill-opacity="1" fill-rule="nonzero"/><g clip-path="url(#93304a5008)"><path fill="#ededed" d="M 22.515625 5.199219 C 22.148438 5.203125 21.800781 5.289062 21.476562 5.460938 C 21.152344 5.632812 20.886719 5.871094 20.679688 6.175781 C 20.472656 6.21875 20.277344 6.292969 20.09375 6.40625 C 19.910156 6.515625 19.75 6.652344 19.617188 6.816406 C 19.480469 6.980469 19.375 7.164062 19.304688 7.363281 C 19.230469 7.5625 19.195312 7.769531 19.195312 7.984375 C 19.195312 8.296875 19.273438 8.589844 19.421875 8.863281 C 19.105469 9.015625 18.851562 9.242188 18.660156 9.542969 C 18.472656 9.84375 18.378906 10.167969 18.378906 10.523438 C 18.378906 10.609375 18.382812 10.695312 18.398438 10.78125 C 18.15625 10.945312 18 11.171875 17.925781 11.453125 C 17.914062 11.453125 17.902344 11.453125 17.886719 11.453125 C 17.734375 11.453125 17.585938 11.484375 17.441406 11.542969 C 17.296875 11.601562 17.171875 11.6875 17.0625 11.796875 C 16.953125 11.90625 16.867188 12.03125 16.808594 12.175781 C 16.75 12.316406 16.71875 12.464844 16.71875 12.621094 C 16.71875 12.921875 16.820312 13.183594 17.027344 13.40625 C 16.820312 13.59375 16.71875 13.820312 16.71875 14.097656 C 16.71875 14.300781 16.78125 14.488281 16.902344 14.652344 C 16.875 14.648438 16.847656 14.644531 16.816406 14.644531 C 16.625 14.644531 16.460938 14.714844 16.328125 14.847656 C 16.191406 14.984375 16.125 15.148438 16.125 15.339844 C 16.125 15.484375 16.167969 15.617188 16.25 15.734375 C 16.148438 15.808594 16.097656 15.90625 16.097656 16.03125 C 16.097656 16.128906 16.132812 16.214844 16.203125 16.285156 C 16.273438 16.355469 16.355469 16.390625 16.457031 16.390625 C 16.554688 16.390625 16.640625 16.355469 16.710938 16.285156 C 16.78125 16.214844 16.816406 16.128906 16.816406 16.03125 C 17.054688 16.03125 17.242188 15.933594 17.378906 15.742188 C 17.515625 15.894531 17.6875 15.972656 17.894531 15.972656 C 18.050781 15.972656 18.191406 15.921875 18.316406 15.828125 C 18.4375 15.734375 18.523438 15.613281 18.5625 15.460938 C 18.664062 15.5 18.769531 15.519531 18.875 15.519531 C 19.265625 15.519531 19.546875 15.34375 19.71875 14.992188 C 19.804688 15.042969 19.898438 15.066406 20 15.066406 C 20.136719 15.066406 20.261719 15.023438 20.367188 14.9375 C 20.472656 14.847656 20.539062 14.738281 20.5625 14.601562 C 20.664062 14.628906 20.769531 14.644531 20.875 14.644531 C 21.148438 14.644531 21.390625 14.558594 21.605469 14.386719 C 21.78125 14.441406 21.960938 14.46875 22.148438 14.46875 C 22.546875 14.46875 22.90625 14.351562 23.226562 14.117188 C 23.550781 13.886719 23.773438 13.582031 23.898438 13.203125 C 24.296875 13.511719 24.75 13.667969 25.253906 13.667969 C 25.546875 13.667969 25.832031 13.613281 26.101562 13.5 C 26.375 13.386719 26.613281 13.226562 26.824219 13.019531 C 27.03125 12.8125 27.191406 12.574219 27.304688 12.300781 C 27.417969 12.03125 27.472656 11.746094 27.472656 11.453125 C 27.472656 11.289062 27.453125 11.125 27.417969 10.964844 C 27.894531 10.527344 28.132812 9.984375 28.132812 9.339844 C 28.132812 9.046875 28.078125 8.761719 27.964844 8.492188 C 27.855469 8.222656 27.695312 7.984375 27.488281 7.777344 C 27.28125 7.566406 27.042969 7.40625 26.773438 7.292969 C 26.5 7.179688 26.21875 7.125 25.925781 7.121094 C 25.75 6.8125 25.511719 6.5625 25.214844 6.367188 C 24.917969 6.171875 24.589844 6.054688 24.238281 6.015625 C 23.792969 5.472656 23.21875 5.199219 22.515625 5.199219 Z M 22.515625 5.199219 " fill-opacity="1" fill-rule="nonzero"/></g><path fill="#dedede" d="M 19.355469 12.632812 C 19.199219 12.585938 19.050781 12.601562 18.90625 12.679688 C 18.761719 12.757812 18.667969 12.875 18.621094 13.03125 C 18.613281 13.058594 18.605469 13.089844 18.601562 13.121094 C 18.664062 12.992188 18.761719 12.898438 18.894531 12.839844 C 19.027344 12.78125 19.164062 12.769531 19.300781 12.8125 C 19.441406 12.851562 19.550781 12.933594 19.628906 13.054688 C 19.707031 13.175781 19.738281 13.308594 19.71875 13.453125 C 19.734375 13.425781 19.742188 13.394531 19.753906 13.367188 C 19.800781 13.210938 19.785156 13.0625 19.707031 12.917969 C 19.628906 12.773438 19.511719 12.679688 19.355469 12.632812 Z M 19.355469 12.632812 " fill-opacity="1" fill-rule="nonzero"/><path fill="#dedede" d="M 21.070312 9.621094 C 20.875 9.5625 20.6875 9.582031 20.511719 9.675781 C 20.332031 9.773438 20.214844 9.917969 20.15625 10.113281 C 20.144531 10.148438 20.136719 10.1875 20.132812 10.226562 C 20.210938 10.0625 20.332031 9.945312 20.496094 9.875 C 20.660156 9.800781 20.828125 9.789062 21.003906 9.839844 C 21.175781 9.894531 21.308594 9.992188 21.40625 10.144531 C 21.507812 10.292969 21.542969 10.457031 21.519531 10.636719 C 21.539062 10.601562 21.550781 10.566406 21.5625 10.53125 C 21.621094 10.335938 21.601562 10.148438 21.503906 9.972656 C 21.40625 9.792969 21.261719 9.675781 21.070312 9.621094 Z M 21.070312 9.621094 " fill-opacity="1" fill-rule="nonzero"/><path fill="#dedede" d="M 24.6875 9.976562 C 24.589844 9.835938 24.457031 9.75 24.289062 9.71875 C 24.117188 9.6875 23.964844 9.71875 23.824219 9.816406 C 23.796875 9.835938 23.769531 9.855469 23.746094 9.878906 C 23.882812 9.8125 24.027344 9.800781 24.171875 9.839844 C 24.320312 9.878906 24.4375 9.960938 24.523438 10.089844 C 24.609375 10.214844 24.644531 10.351562 24.628906 10.503906 C 24.613281 10.65625 24.550781 10.78125 24.441406 10.886719 C 24.46875 10.875 24.496094 10.859375 24.523438 10.839844 C 24.667969 10.742188 24.753906 10.609375 24.785156 10.441406 C 24.816406 10.273438 24.785156 10.117188 24.6875 9.976562 Z M 24.6875 9.976562 " fill-opacity="1" fill-rule="nonzero"/><path fill="#dedede" d="M 22.78125 12 C 22.664062 11.875 22.519531 11.808594 22.347656 11.800781 C 22.175781 11.792969 22.027344 11.847656 21.902344 11.964844 C 21.878906 11.984375 21.855469 12.011719 21.835938 12.035156 C 21.960938 11.953125 22.101562 11.917969 22.253906 11.9375 C 22.40625 11.957031 22.53125 12.023438 22.636719 12.132812 C 22.738281 12.246094 22.792969 12.378906 22.796875 12.53125 C 22.804688 12.683594 22.757812 12.816406 22.664062 12.9375 C 22.691406 12.917969 22.71875 12.898438 22.742188 12.878906 C 22.867188 12.761719 22.933594 12.617188 22.941406 12.445312 C 22.949219 12.277344 22.894531 12.128906 22.78125 12 Z M 22.78125 12 " fill-opacity="1" fill-rule="nonzero"/><path fill="#dedede" d="M 22.53125 7.144531 C 22.433594 7.003906 22.300781 6.917969 22.132812 6.886719 C 21.964844 6.855469 21.808594 6.886719 21.667969 6.984375 C 21.640625 7.003906 21.613281 7.023438 21.589844 7.046875 C 21.726562 6.984375 21.871094 6.96875 22.019531 7.007812 C 22.164062 7.050781 22.28125 7.132812 22.367188 7.257812 C 22.453125 7.382812 22.488281 7.519531 22.472656 7.671875 C 22.457031 7.824219 22.394531 7.953125 22.285156 8.054688 C 22.3125 8.042969 22.34375 8.027344 22.371094 8.007812 C 22.511719 7.910156 22.597656 7.777344 22.628906 7.609375 C 22.660156 7.441406 22.628906 7.289062 22.53125 7.144531 Z M 22.53125 7.144531 " fill-opacity="1" fill-rule="nonzero"/><g fill="#000000" fill-opacity="1"><g transform="translate(31.057769, 26.706864)"><g><path d="M 6.125 0.140625 C 5.082031 0.140625 4.144531 -0.0820312 3.3125 -0.53125 C 2.476562 -0.976562 1.820312 -1.601562 1.34375 -2.40625 C 0.875 -3.207031 0.640625 -4.097656 0.640625 -5.078125 C 0.640625 -6.066406 0.875 -6.960938 1.34375 -7.765625 C 1.820312 -8.566406 2.476562 -9.191406 3.3125 -9.640625 C 4.144531 -10.085938 5.082031 -10.3125 6.125 -10.3125 C 7.15625 -10.3125 8.085938 -10.085938 8.921875 -9.640625 C 9.753906 -9.191406 10.40625 -8.566406 10.875 -7.765625 C 11.351562 -6.972656 11.59375 -6.078125 11.59375 -5.078125 C 11.59375 -4.085938 11.351562 -3.191406 10.875 -2.390625 C 10.40625 -1.597656 9.753906 -0.976562 8.921875 -0.53125 C 8.085938 -0.0820312 7.15625 0.140625 6.125 0.140625 Z M 6.125 -1.515625 C 6.800781 -1.515625 7.410156 -1.664062 7.953125 -1.96875 C 8.492188 -2.269531 8.914062 -2.691406 9.21875 -3.234375 C 9.53125 -3.785156 9.6875 -4.398438 9.6875 -5.078125 C 9.6875 -5.765625 9.53125 -6.378906 9.21875 -6.921875 C 8.914062 -7.472656 8.492188 -7.898438 7.953125 -8.203125 C 7.410156 -8.503906 6.800781 -8.65625 6.125 -8.65625 C 5.4375 -8.65625 4.820312 -8.503906 4.28125 -8.203125 C 3.738281 -7.898438 3.3125 -7.472656 3 -6.921875 C 2.695312 -6.378906 2.546875 -5.765625 2.546875 -5.078125 C 2.546875 -4.398438 2.695312 -3.785156 3 -3.234375 C 3.3125 -2.691406 3.738281 -2.269531 4.28125 -1.96875 C 4.820312 -1.664062 5.4375 -1.515625 6.125 -1.515625 Z M 6.125 -1.515625 "/></g></g></g><g fill="#000000" fill-opacity="1"><g transform="translate(43.285234, 26.706864)"><g><path d="M 4.875 -4.25 L 3.25 -2.59375 L 3.25 0 L 1.359375 0 L 1.359375 -10.171875 L 3.25 -10.171875 L 3.25 -4.953125 L 8.28125 -10.171875 L 10.40625 -10.171875 L 6.125 -5.625 L 10.671875 0 L 8.453125 0 Z M 4.875 -4.25 "/></g></g></g><g fill="#000000" fill-opacity="1"><g transform="translate(53.871727, 26.706864)"><g><path d="M 9 -1.578125 L 9 0 L 1.359375 0 L 1.359375 -10.171875 L 8.796875 -10.171875 L 8.796875 -8.59375 L 3.25 -8.59375 L 3.25 -5.9375 L 8.171875 -5.9375 L 8.171875 -4.390625 L 3.25 -4.390625 L 3.25 -1.578125 Z M 9 -1.578125 "/></g></g></g><g fill="#000000" fill-opacity="1"><g transform="translate(31.057769, 41.565353)"><g><path d="M 8.3125 -5.203125 L 10.09375 -5.203125 L 10.09375 -1.140625 C 9.570312 -0.722656 8.960938 -0.40625 8.265625 -0.1875 C 7.566406 0.03125 6.851562 0.140625 6.125 0.140625 C 5.082031 0.140625 4.144531 -0.0820312 3.3125 -0.53125 C 2.476562 -0.976562 1.820312 -1.597656 1.34375 -2.390625 C 0.875 -3.191406 0.640625 -4.085938 0.640625 -5.078125 C 0.640625 -6.078125 0.875 -6.972656 1.34375 -7.765625 C 1.820312 -8.566406 2.476562 -9.191406 3.3125 -9.640625 C 4.15625 -10.085938 5.097656 -10.3125 6.140625 -10.3125 C 6.992188 -10.3125 7.769531 -10.171875 8.46875 -9.890625 C 9.164062 -9.609375 9.753906 -9.195312 10.234375 -8.65625 L 9.03125 -7.5 C 8.257812 -8.269531 7.328125 -8.65625 6.234375 -8.65625 C 5.515625 -8.65625 4.875 -8.503906 4.3125 -8.203125 C 3.757812 -7.910156 3.328125 -7.488281 3.015625 -6.9375 C 2.703125 -6.394531 2.546875 -5.773438 2.546875 -5.078125 C 2.546875 -4.398438 2.703125 -3.789062 3.015625 -3.25 C 3.328125 -2.707031 3.757812 -2.28125 4.3125 -1.96875 C 4.875 -1.664062 5.507812 -1.515625 6.21875 -1.515625 C 7.007812 -1.515625 7.707031 -1.6875 8.3125 -2.03125 Z M 8.3125 -5.203125 "/></g></g></g><g fill="#000000" fill-opacity="1"><g transform="translate(42.268701, 41.565353)"><g><path d="M 7.96875 -2.359375 L 2.875 -2.359375 L 1.875 0 L -0.078125 0 L 4.5 -10.171875 L 6.359375 -10.171875 L 10.953125 0 L 8.984375 0 Z M 7.34375 -3.84375 L 5.421875 -8.28125 L 3.515625 -3.84375 Z M 7.34375 -3.84375 "/></g></g></g><g fill="#000000" fill-opacity="1"><g transform="translate(53.145625, 41.565353)"><g><path d="M 4.515625 0.140625 C 3.734375 0.140625 2.972656 0.03125 2.234375 -0.1875 C 1.503906 -0.40625 0.929688 -0.703125 0.515625 -1.078125 L 1.15625 -2.546875 C 1.570312 -2.210938 2.082031 -1.941406 2.6875 -1.734375 C 3.300781 -1.523438 3.910156 -1.421875 4.515625 -1.421875 C 5.273438 -1.421875 5.835938 -1.539062 6.203125 -1.78125 C 6.578125 -2.03125 6.765625 -2.351562 6.765625 -2.75 C 6.765625 -3.039062 6.660156 -3.28125 6.453125 -3.46875 C 6.242188 -3.65625 5.976562 -3.800781 5.65625 -3.90625 C 5.34375 -4.007812 4.910156 -4.128906 4.359375 -4.265625 C 3.585938 -4.453125 2.960938 -4.632812 2.484375 -4.8125 C 2.003906 -5 1.585938 -5.289062 1.234375 -5.6875 C 0.890625 -6.082031 0.71875 -6.613281 0.71875 -7.28125 C 0.71875 -7.84375 0.867188 -8.351562 1.171875 -8.8125 C 1.484375 -9.269531 1.945312 -9.632812 2.5625 -9.90625 C 3.175781 -10.175781 3.929688 -10.3125 4.828125 -10.3125 C 5.441406 -10.3125 6.050781 -10.234375 6.65625 -10.078125 C 7.257812 -9.929688 7.773438 -9.710938 8.203125 -9.421875 L 7.609375 -7.953125 C 7.171875 -8.210938 6.707031 -8.410156 6.21875 -8.546875 C 5.738281 -8.679688 5.269531 -8.75 4.8125 -8.75 C 4.0625 -8.75 3.503906 -8.617188 3.140625 -8.359375 C 2.773438 -8.109375 2.59375 -7.78125 2.59375 -7.375 C 2.59375 -7.082031 2.695312 -6.84375 2.90625 -6.65625 C 3.113281 -6.46875 3.378906 -6.320312 3.703125 -6.21875 C 4.023438 -6.113281 4.460938 -5.992188 5.015625 -5.859375 C 5.765625 -5.679688 6.378906 -5.5 6.859375 -5.3125 C 7.347656 -5.125 7.765625 -4.832031 8.109375 -4.4375 C 8.453125 -4.050781 8.625 -3.53125 8.625 -2.875 C 8.625 -2.3125 8.472656 -1.800781 8.171875 -1.34375 C 7.867188 -0.894531 7.40625 -0.535156 6.78125 -0.265625 C 6.164062 0.00390625 5.410156 0.140625 4.515625 0.140625 Z M 4.515625 0.140625 "/></g></g></g><g clip-path="url(#43f012d910)"><g clip-path="url(#fde2bc04a6)"><path fill="#a6b215" d="M 33.503906 17.53125 L 41.082031 17.53125 L 41.082031 25.113281 L 33.503906 25.113281 Z M 33.503906 17.53125 " fill-opacity="1" fill-rule="nonzero"/></g></g></svg>